<svg aria-hidden="true" style="position: absolute; width: 0; height: 0; overflow: hidden;" version="1.1" xmlns="http://www.w3.org/2000/svg" xmlns:xlink="http://www.w3.org/1999/xlink">
<defs>
<symbol id="icon-direction" viewBox="0 0 32 32">
<path d="M17.987 3h-5v3h5v-3zM17.987 15v-2h-5v2h5zM12.987 30h5v-8h-5v8zM24.987 12l-2.187-2.5 2.187-2.5h-16l-2.6 2.5 2.6 2.5h16zM22.987 16h-16l2.188 2.5-2.188 2.5h16l2.625-2.5-2.625-2.5z"></path>
</symbol>
<symbol id="icon-t-shirt" viewBox="0 0 32 32">
<path d="M31.25 6.438l-5-4c-0.355-0.284-0.797-0.438-1.25-0.438h-18c-0.454 0-0.895 0.154-1.25 0.438l-5 4c-0.654 0.524-0.912 1.4-0.647 2.195l2 6c0.197 0.591 0.659 1.057 1.249 1.259 0.21 0.072 0.43 0.108 0.648 0.108 0.348 0 0.693-0.091 1-0.268v12.268c0 1.104 0.896 2 2 2h18c1.104 0 2-0.896 2-2v-12.268c0.307 0.177 0.652 0.268 1 0.268 0.219 0 0.438-0.036 0.648-0.108 0.59-0.202 1.051-0.668 1.248-1.259l2-6c0.266-0.795 0.008-1.671-0.646-2.195zM19.754 4c-0.553 1.161-2.018 2-3.754 2s-3.202-0.839-3.754-2h7.508zM28 14l-3-2v16h-18v-16l-3 2-2-6 5-4h4.177c0.557 1.722 2.496 3 4.823 3s4.266-1.278 4.822-3h4.178l5 4-2 6z"></path>
</symbol>
<symbol id="icon-like" viewBox="0 0 32 32">
<path d="M29.164 10.472c-1.25-0.328-4.189-0.324-8.488-0.438 0.203-0.938 0.25-1.784 0.25-3.286 0-3.588-2.614-6.748-4.926-6.748-1.633 0-2.979 1.335-3 2.977-0.022 2.014-0.645 5.492-4 7.256-0.246 0.13-0.95 0.477-1.053 0.522l0.053 0.045c-0.525-0.453-1.253-0.8-2-0.8h-3c-1.654 0-3 1.346-3 3v16c0 1.654 1.346 3 3 3h3c1.19 0 2.186-0.719 2.668-1.727 0.012 0.004 0.033 0.010 0.047 0.012 0.066 0.018 0.144 0.037 0.239 0.062 0.018 0.005 0.027 0.007 0.046 0.012 0.576 0.143 1.685 0.408 4.055 0.953 0.508 0.116 3.192 0.688 5.972 0.688h5.467c1.666 0 2.867-0.641 3.582-1.928 0.010-0.020 0.24-0.469 0.428-1.076 0.141-0.457 0.193-1.104 0.023-1.76 1.074-0.738 1.42-1.854 1.645-2.58 0.377-1.191 0.264-2.086 0.002-2.727 0.604-0.57 1.119-1.439 1.336-2.766 0.135-0.822-0.010-1.668-0.389-2.372 0.566-0.636 0.824-1.436 0.854-2.176l0.012-0.209c0.007-0.131 0.013-0.212 0.013-0.5 0-1.263-0.875-2.874-2.836-3.434zM7 29c0 0.553-0.447 1-1 1h-3c-0.553 0-1-0.447-1-1v-16c0-0.553 0.447-1 1-1h3c0.553 0 1 0.447 1 1v16zM29.977 14.535c-0.020 0.494-0.227 1.465-1.977 1.465-1.5 0-2 0-2 0-0.277 0-0.5 0.224-0.5 0.5s0.223 0.5 0.5 0.5c0 0 0.438 0 1.938 0s1.697 1.244 1.6 1.844c-0.124 0.746-0.474 2.156-2.163 2.156-1.687 0-2.375 0-2.375 0-0.277 0-0.5 0.223-0.5 0.5 0 0.275 0.223 0.5 0.5 0.5 0 0 1.188 0 1.969 0 1.688 0 1.539 1.287 1.297 2.055-0.319 1.009-0.514 1.945-2.641 1.945-0.719 0-1.631 0-1.631 0-0.277 0-0.5 0.223-0.5 0.5 0 0.275 0.223 0.5 0.5 0.5 0 0 0.693 0 1.568 0 1.094 0 1.145 1.035 1.031 1.406-0.125 0.406-0.273 0.707-0.279 0.721-0.302 0.545-0.789 0.873-1.82 0.873h-5.467c-2.746 0-5.47-0.623-5.54-0.639-4.154-0.957-4.373-1.031-4.634-1.105 0 0-0.846-0.143-0.846-0.881l-0.007-13.812c0-0.469 0.299-0.893 0.794-1.042 0.062-0.024 0.146-0.050 0.206-0.075 4.568-1.892 5.959-6.040 6-9.446 0.006-0.479 0.375-1 1-1 1.057 0 2.926 2.122 2.926 4.748 0 2.371-0.096 2.781-0.926 5.252 10 0 9.93 0.144 10.812 0.375 1.094 0.313 1.188 1.219 1.188 1.531 0 0.343-0.010 0.293-0.023 0.629zM4.5 26c-0.828 0-1.5 0.672-1.5 1.5s0.672 1.5 1.5 1.5 1.5-0.672 1.5-1.5-0.672-1.5-1.5-1.5zM4.5 28c-0.275 0-0.5-0.225-0.5-0.5s0.225-0.5 0.5-0.5 0.5 0.225 0.5 0.5-0.225 0.5-0.5 0.5z"></path>
</symbol>
<symbol id="icon-electric_car" viewBox="0 0 24 24">
<path d="M18.938 2.016q-0.188-0.469-0.563-0.75t-0.891-0.281h-10.969q-0.516 0-0.891 0.281t-0.563 0.75l-2.063 6v7.969q0 0.422 0.305 0.727t0.68 0.305h1.031q0.375 0 0.68-0.305t0.305-0.727v-0.984h12v0.984q0 0.422 0.305 0.727t0.68 0.305h1.031q0.375 0 0.68-0.305t0.305-0.727v-7.969zM6.516 12q-0.656 0-1.078-0.445t-0.422-1.055 0.422-1.055 1.078-0.445q0.609 0 1.055 0.445t0.445 1.055-0.445 1.055-1.055 0.445zM17.484 12q-0.609 0-1.055-0.445t-0.445-1.055 0.445-1.055 1.055-0.445q0.656 0 1.078 0.445t0.422 1.055-0.422 1.055-1.078 0.445zM5.016 6.984l1.5-4.5h10.969l1.5 4.5h-13.969zM6.984 20.016h4.031v-2.016l6 3h-4.031v2.016z"></path>
</symbol>
<symbol id="icon-map-pin-alt" viewBox="0 0 16 32">
<path d="M8 0c-4.418 0-8 3.582-8 8s8 24 8 24 8-19.582 8-24-3.582-8-8-8zM8 12c-2.209 0-4-1.791-4-4s1.791-4 4-4 4 1.791 4 4-1.791 4-4 4z"></path>
</symbol>
<symbol id="icon-phone" viewBox="0 0 32 32">
<path d="M22 20c-2 2-2 4-4 4s-4-2-6-4-4-4-4-6 2-2 4-4-4-8-6-8-6 6-6 6c0 4 4.109 12.109 8 16s12 8 16 8c0 0 6-4 6-6s-6-8-8-6z"></path>
</symbol>
<symbol id="icon-phone-hang-up" viewBox="0 0 32 32">
<path d="M31.793 18c0.25 1.734 0.413 4.106-0.364 5.014-1.286 1.501-9.428 1.501-9.428-1.501 0-1.512 1.339-2.504 0.053-4.006-1.265-1.477-3.532-1.501-6.054-1.501s-4.789 0.024-6.054 1.501c-1.286 1.501 0.054 2.493 0.054 4.006 0 3.003-8.143 3.003-9.429 1.501-0.777-0.908-0.615-3.28-0.364-5.014 0.193-1.157 0.679-2.406 2.236-4 0-0 0-0 0-0 2.336-2.179 5.87-3.961 13.432-3.999v-0.001c0.042 0 0.083 0 0.125 0s0.083-0 0.125-0v0.001c7.562 0.038 11.096 1.82 13.432 3.999 0 0 0 0 0 0 1.557 1.594 2.043 2.842 2.236 4z"></path>
</symbol>
<symbol id="icon-google2" viewBox="0 0 32 32">
<path d="M29 0h-26c-1.65 0-3 1.35-3 3v26c0 1.65 1.35 3 3 3h26c1.65 0 3-1.35 3-3v-26c0-1.65-1.35-3-3-3zM16.238 28c-6.631 0-12-5.369-12-12s5.369-12 12-12c3.238 0 5.95 1.181 8.037 3.138l-3.256 3.138c-0.894-0.856-2.45-1.85-4.781-1.85-4.1 0-7.438 3.394-7.438 7.575s3.344 7.575 7.438 7.575c4.75 0 6.531-3.413 6.806-5.175h-6.806v-4.113h11.331c0.1 0.6 0.188 1.2 0.188 1.988 0.006 6.856-4.588 11.725-11.519 11.725z"></path>
</symbol>
<symbol id="icon-facebook2" viewBox="0 0 32 32">
<path d="M29 0h-26c-1.65 0-3 1.35-3 3v26c0 1.65 1.35 3 3 3h13v-14h-4v-4h4v-2c0-3.306 2.694-6 6-6h4v4h-4c-1.1 0-2 0.9-2 2v2h6l-1 4h-5v14h9c1.65 0 3-1.35 3-3v-26c0-1.65-1.35-3-3-3z"></path>
</symbol>
<symbol id="icon-whatsapp" viewBox="0 0 32 32">
<path d="M27.281 4.65c-2.994-3-6.975-4.65-11.219-4.65-8.738 0-15.85 7.112-15.85 15.856 0 2.794 0.731 5.525 2.119 7.925l-2.25 8.219 8.406-2.206c2.319 1.262 4.925 1.931 7.575 1.931h0.006c0 0 0 0 0 0 8.738 0 15.856-7.113 15.856-15.856 0-4.238-1.65-8.219-4.644-11.219zM16.069 29.050v0c-2.369 0-4.688-0.637-6.713-1.837l-0.481-0.288-4.987 1.306 1.331-4.863-0.313-0.5c-1.325-2.094-2.019-4.519-2.019-7.012 0-7.269 5.912-13.181 13.188-13.181 3.519 0 6.831 1.375 9.319 3.862 2.488 2.494 3.856 5.8 3.856 9.325-0.006 7.275-5.919 13.188-13.181 13.188zM23.294 19.175c-0.394-0.2-2.344-1.156-2.706-1.288s-0.625-0.2-0.894 0.2c-0.262 0.394-1.025 1.288-1.256 1.556-0.231 0.262-0.462 0.3-0.856 0.1s-1.675-0.619-3.188-1.969c-1.175-1.050-1.975-2.35-2.206-2.744s-0.025-0.613 0.175-0.806c0.181-0.175 0.394-0.463 0.594-0.694s0.262-0.394 0.394-0.662c0.131-0.262 0.069-0.494-0.031-0.694s-0.894-2.15-1.219-2.944c-0.319-0.775-0.65-0.669-0.894-0.681-0.231-0.012-0.494-0.012-0.756-0.012s-0.694 0.1-1.056 0.494c-0.363 0.394-1.387 1.356-1.387 3.306s1.419 3.831 1.619 4.1c0.2 0.262 2.794 4.269 6.769 5.981 0.944 0.406 1.681 0.65 2.256 0.837 0.95 0.3 1.813 0.256 2.494 0.156 0.762-0.113 2.344-0.956 2.675-1.881s0.331-1.719 0.231-1.881c-0.094-0.175-0.356-0.275-0.756-0.475z"></path>
</symbol>
<symbol id="icon-twitter" viewBox="0 0 32 32">
<path d="M32 7.075c-1.175 0.525-2.444 0.875-3.769 1.031 1.356-0.813 2.394-2.1 2.887-3.631-1.269 0.75-2.675 1.3-4.169 1.594-1.2-1.275-2.906-2.069-4.794-2.069-3.625 0-6.563 2.938-6.563 6.563 0 0.512 0.056 1.012 0.169 1.494-5.456-0.275-10.294-2.888-13.531-6.862-0.563 0.969-0.887 2.1-0.887 3.3 0 2.275 1.156 4.287 2.919 5.463-1.075-0.031-2.087-0.331-2.975-0.819 0 0.025 0 0.056 0 0.081 0 3.181 2.263 5.838 5.269 6.437-0.55 0.15-1.131 0.231-1.731 0.231-0.425 0-0.831-0.044-1.237-0.119 0.838 2.606 3.263 4.506 6.131 4.563-2.25 1.762-5.075 2.813-8.156 2.813-0.531 0-1.050-0.031-1.569-0.094 2.913 1.869 6.362 2.95 10.069 2.95 12.075 0 18.681-10.006 18.681-18.681 0-0.287-0.006-0.569-0.019-0.85 1.281-0.919 2.394-2.075 3.275-3.394z"></path>
</symbol>
<symbol id="icon-travel-car" viewBox="0 0 20 20">
<path d="M2 14v-3h-1c-0.552 0-1-0.448-1-1v0c0-0.552 0.448-1 1-1v0h1l4-7h8l4 7h1c0.552 0 1 0.448 1 1v0c0 0.552-0.448 1-1 1v0h-1v6c0 0.552-0.448 1-1 1v0h-1c-0.552 0-1-0.448-1-1v0-1h-10v1c0 0.552-0.448 1-1 1v0h-1c-0.552 0-1-0.448-1-1v0-3zM15.86 9l-2.86-5h-6l-2.86 5h11.72zM5.5 14c0.828 0 1.5-0.672 1.5-1.5s-0.672-1.5-1.5-1.5v0c-0.828 0-1.5 0.672-1.5 1.5s0.672 1.5 1.5 1.5v0zM14.5 14c0.828 0 1.5-0.672 1.5-1.5s-0.672-1.5-1.5-1.5v0c-0.828 0-1.5 0.672-1.5 1.5s0.672 1.5 1.5 1.5v0z"></path>
</symbol>
</defs>
</svg>
